<svg xmlns="http://www.w3.org/2000/svg" width="161.888" height="23.104" viewBox="0 0 161.888 23.104"><path d="M11.488.384a11.075,11.075,0,0,1-4.1-.72,8.12,8.12,0,0,1-3.1-2.144A9.871,9.871,0,0,1,2.3-6.032a15.868,15.868,0,0,1-.7-4.976,16.366,16.366,0,0,1,.7-5.008A10.478,10.478,0,0,1,4.288-19.7a8.273,8.273,0,0,1,3.1-2.256,10.461,10.461,0,0,1,4.1-.768,9.486,9.486,0,0,1,5.12,1.264,8.715,8.715,0,0,1,3.232,3.984L15.648-15.3a4.988,4.988,0,0,0-1.392-2.256,4.017,4.017,0,0,0-2.768-.848,4.477,4.477,0,0,0-3.44,1.392,5.733,5.733,0,0,0-1.3,4.048v3.584a5.733,5.733,0,0,0,1.3,4.048,4.477,4.477,0,0,0,3.44,1.392,4.091,4.091,0,0,0,2.864-.976,5.93,5.93,0,0,0,1.584-2.352L19.9-4.96a9.929,9.929,0,0,1-3.28,3.952A8.888,8.888,0,0,1,11.488.384ZM38.4,0,36.8-5.312H29.344L27.744,0H22.816l7.36-22.336h6.016L43.456,0ZM33.12-17.92h-.16L30.5-9.44h5.12Zm15.04-4.416h8.416a11.112,11.112,0,0,1,4.032.7,8.128,8.128,0,0,1,3.1,2.1A9.577,9.577,0,0,1,65.7-16.048a15.336,15.336,0,0,1,.7,4.88,15.336,15.336,0,0,1-.7,4.88A9.577,9.577,0,0,1,63.712-2.8a8.128,8.128,0,0,1-3.1,2.1,11.112,11.112,0,0,1-4.032.7H48.16ZM56.576-4.32A4.7,4.7,0,0,0,60-5.536a5.262,5.262,0,0,0,1.248-3.9V-12.9A5.262,5.262,0,0,0,60-16.8a4.7,4.7,0,0,0-3.424-1.216H53.024v13.7ZM75.968,0a2.617,2.617,0,0,1-2.032-.752,2.8,2.8,0,0,1-.688-1.968V-14.272h-2.72v-2.24h1.536a1.5,1.5,0,0,0,1.136-.336,1.744,1.744,0,0,0,.3-1.168v-3.072h2.3v4.576h3.616v2.24H75.808V-2.24h3.36V0ZM91.232.384a7.409,7.409,0,0,1-3.056-.608A6.591,6.591,0,0,1,85.84-1.968a8,8,0,0,1-1.5-2.72,11.249,11.249,0,0,1-.528-3.568,11.289,11.289,0,0,1,.528-3.552,7.98,7.98,0,0,1,1.5-2.736,6.591,6.591,0,0,1,2.336-1.744,7.409,7.409,0,0,1,3.056-.608,7,7,0,0,1,2.976.608,6.591,6.591,0,0,1,2.24,1.68,7.493,7.493,0,0,1,1.424,2.544,10.069,10.069,0,0,1,.5,3.232v1.216H86.5v.768a5.649,5.649,0,0,0,.336,1.968,4.673,4.673,0,0,0,.96,1.584A4.386,4.386,0,0,0,89.328-2.24a5.274,5.274,0,0,0,2.064.384,5.023,5.023,0,0,0,2.736-.736A4.828,4.828,0,0,0,95.936-4.7L97.76-3.392a6.348,6.348,0,0,1-2.5,2.736A7.562,7.562,0,0,1,91.232.384Zm0-15.136a4.852,4.852,0,0,0-1.92.368,4.31,4.31,0,0,0-1.488,1.04,4.885,4.885,0,0,0-.976,1.584,5.51,5.51,0,0,0-.352,2v.224h9.12v-.352a5.074,5.074,0,0,0-1.2-3.536A4.083,4.083,0,0,0,91.232-14.752ZM116.192,0a2.512,2.512,0,0,1-2.064-.768,3.807,3.807,0,0,1-.784-1.92h-.16a4.272,4.272,0,0,1-1.792,2.3,5.567,5.567,0,0,1-2.976.768,5.791,5.791,0,0,1-4.08-1.344,4.721,4.721,0,0,1-1.456-3.648,4.166,4.166,0,0,1,1.712-3.584A9.106,9.106,0,0,1,109.92-9.44h3.264v-1.632a3.568,3.568,0,0,0-.96-2.688,4.1,4.1,0,0,0-2.944-.928,4.432,4.432,0,0,0-2.512.672,5.537,5.537,0,0,0-1.68,1.792l-1.536-1.44a5.832,5.832,0,0,1,2.144-2.288,6.753,6.753,0,0,1,3.712-.944,6.817,6.817,0,0,1,4.672,1.472,5.184,5.184,0,0,1,1.664,4.1V-2.24h1.888V0Zm-7.36-1.792a6.514,6.514,0,0,0,1.76-.224,4.314,4.314,0,0,0,1.376-.64,3.173,3.173,0,0,0,.9-.96,2.294,2.294,0,0,0,.32-1.184V-7.52h-3.392a6.19,6.19,0,0,0-3.216.64,2.067,2.067,0,0,0-1.008,1.856v.672a2.238,2.238,0,0,0,.88,1.888A3.835,3.835,0,0,0,108.832-1.792ZM122.88,0V-16.512h2.56v2.688h.128a8.626,8.626,0,0,1,.656-1.2,4.1,4.1,0,0,1,.9-.976,4.119,4.119,0,0,1,1.232-.656,5.169,5.169,0,0,1,1.664-.24,5.971,5.971,0,0,1,3.008.784,4.73,4.73,0,0,1,2.048,2.576h.064a5.112,5.112,0,0,1,1.68-2.352A5.126,5.126,0,0,1,140.16-16.9a4.946,4.946,0,0,1,3.952,1.648,6.9,6.9,0,0,1,1.424,4.656V0h-2.56V-10.144a5.391,5.391,0,0,0-.864-3.328,3.257,3.257,0,0,0-2.752-1.12,5.393,5.393,0,0,0-1.456.192,3.965,3.965,0,0,0-1.232.576,2.818,2.818,0,0,0-.864.976,2.885,2.885,0,0,0-.32,1.392V0h-2.56V-10.144a5.391,5.391,0,0,0-.864-3.328,3.181,3.181,0,0,0-2.688-1.12,5.57,5.57,0,0,0-1.472.192,3.941,3.941,0,0,0-1.248.576,2.976,2.976,0,0,0-.88.976,2.773,2.773,0,0,0-.336,1.392V0Zm34.5.384A7.723,7.723,0,0,1,153.52-.5a8.772,8.772,0,0,1-2.672-2.352l1.824-1.472a7.179,7.179,0,0,0,2.144,1.872,5.586,5.586,0,0,0,2.752.656,4.076,4.076,0,0,0,2.544-.7,2.361,2.361,0,0,0,.912-1.984,2.368,2.368,0,0,0-.624-1.648,3.808,3.808,0,0,0-2.256-.944l-1.312-.192a10.948,10.948,0,0,1-2.112-.5,5.87,5.87,0,0,1-1.68-.9,3.854,3.854,0,0,1-1.12-1.392,4.54,4.54,0,0,1-.4-1.984,4.772,4.772,0,0,1,.448-2.128,4.287,4.287,0,0,1,1.232-1.52,5.379,5.379,0,0,1,1.872-.912,8.649,8.649,0,0,1,2.336-.3,7.291,7.291,0,0,1,3.376.7,7.568,7.568,0,0,1,2.384,1.952l-1.7,1.536a5.089,5.089,0,0,0-1.6-1.392,5.152,5.152,0,0,0-2.656-.624,3.667,3.667,0,0,0-2.416.688,2.32,2.32,0,0,0-.816,1.872,1.96,1.96,0,0,0,.816,1.76,6.1,6.1,0,0,0,2.352.8l1.28.192a6.866,6.866,0,0,1,3.9,1.584,4.164,4.164,0,0,1,1.152,3.056,4.676,4.676,0,0,1-1.632,3.776A6.735,6.735,0,0,1,157.376.384Z" transform="translate(-1.6 22.72)" fill="#101820"/></svg>