<svg xmlns="http://www.w3.org/2000/svg" width="92.96" height="59.334" viewBox="0 0 92.96 59.334"><path d="M-31.657.54a15.575,15.575,0,0,1-5.76-1.013,11.419,11.419,0,0,1-4.365-3.015,13.881,13.881,0,0,1-2.79-5,22.314,22.314,0,0,1-.99-7,23.015,23.015,0,0,1,.99-7.043,14.735,14.735,0,0,1,2.79-5.175,11.633,11.633,0,0,1,4.365-3.173,14.711,14.711,0,0,1,5.76-1.08,13.34,13.34,0,0,1,7.2,1.778,12.255,12.255,0,0,1,4.545,5.6l-5.9,3.06a7.014,7.014,0,0,0-1.958-3.173,5.649,5.649,0,0,0-3.892-1.192,6.3,6.3,0,0,0-4.837,1.958,8.061,8.061,0,0,0-1.823,5.692v5.04a8.061,8.061,0,0,0,1.823,5.693,6.3,6.3,0,0,0,4.837,1.957A5.752,5.752,0,0,0-27.63-6.908,8.339,8.339,0,0,0-25.4-10.215l5.58,3.24a13.963,13.963,0,0,1-4.612,5.557A12.5,12.5,0,0,1-31.657.54ZM6.188,0,3.937-7.47H-6.548L-8.8,0h-6.93l10.35-31.41h8.46L13.3,0ZM-1.238-25.2h-.225L-4.928-13.275h7.2Zm21.15-6.21H31.748a15.626,15.626,0,0,1,5.67.99,11.43,11.43,0,0,1,4.365,2.948,13.467,13.467,0,0,1,2.79,4.9,21.566,21.566,0,0,1,.99,6.863,21.566,21.566,0,0,1-.99,6.863,13.467,13.467,0,0,1-2.79,4.9A11.43,11.43,0,0,1,37.418-.99a15.626,15.626,0,0,1-5.67.99H19.913ZM31.748-6.075a6.605,6.605,0,0,0,4.815-1.71q1.755-1.71,1.755-5.49v-4.86q0-3.78-1.755-5.49a6.605,6.605,0,0,0-4.815-1.71H26.753v19.26ZM-41.472,27a2.617,2.617,0,0,1-2.032-.752,2.8,2.8,0,0,1-.688-1.968V12.728h-2.72v-2.24h1.536a1.5,1.5,0,0,0,1.136-.336,1.744,1.744,0,0,0,.3-1.168V5.912h2.3v4.576h3.616v2.24h-3.616V24.76h3.36V27Zm15.264.384a7.409,7.409,0,0,1-3.056-.608A6.591,6.591,0,0,1-31.6,25.032a8,8,0,0,1-1.5-2.72,11.249,11.249,0,0,1-.528-3.568,11.289,11.289,0,0,1,.528-3.552,7.98,7.98,0,0,1,1.5-2.736,6.591,6.591,0,0,1,2.336-1.744,7.409,7.409,0,0,1,3.056-.608,7,7,0,0,1,2.976.608,6.591,6.591,0,0,1,2.24,1.68,7.493,7.493,0,0,1,1.424,2.544,10.069,10.069,0,0,1,.5,3.232v1.216H-30.944v.768a5.649,5.649,0,0,0,.336,1.968,4.673,4.673,0,0,0,.96,1.584,4.386,4.386,0,0,0,1.536,1.056,5.274,5.274,0,0,0,2.064.384,5.023,5.023,0,0,0,2.736-.736A4.828,4.828,0,0,0-21.5,22.3l1.824,1.312a6.348,6.348,0,0,1-2.5,2.736A7.562,7.562,0,0,1-26.208,27.384Zm0-15.136a4.852,4.852,0,0,0-1.92.368,4.31,4.31,0,0,0-1.488,1.04,4.885,4.885,0,0,0-.976,1.584,5.51,5.51,0,0,0-.352,2v.224h9.12v-.352a5.074,5.074,0,0,0-1.2-3.536A4.083,4.083,0,0,0-26.208,12.248ZM-1.248,27a2.512,2.512,0,0,1-2.064-.768,3.807,3.807,0,0,1-.784-1.92h-.16a4.272,4.272,0,0,1-1.792,2.3,5.567,5.567,0,0,1-2.976.768A5.791,5.791,0,0,1-13.1,26.04a4.721,4.721,0,0,1-1.456-3.648,4.166,4.166,0,0,1,1.712-3.584A9.106,9.106,0,0,1-7.52,17.56h3.264V15.928a3.568,3.568,0,0,0-.96-2.688,4.1,4.1,0,0,0-2.944-.928,4.432,4.432,0,0,0-2.512.672,5.537,5.537,0,0,0-1.68,1.792l-1.536-1.44a5.832,5.832,0,0,1,2.144-2.288A6.753,6.753,0,0,1-8.032,10.1,6.817,6.817,0,0,1-3.36,11.576a5.184,5.184,0,0,1,1.664,4.1V24.76H.192V27Zm-7.36-1.792a6.514,6.514,0,0,0,1.76-.224,4.314,4.314,0,0,0,1.376-.64,3.173,3.173,0,0,0,.9-.96,2.294,2.294,0,0,0,.32-1.184V19.48H-7.648a6.19,6.19,0,0,0-3.216.64,2.067,2.067,0,0,0-1.008,1.856v.672a2.238,2.238,0,0,0,.88,1.888A3.835,3.835,0,0,0-8.608,25.208ZM5.44,27V10.488H8v2.688h.128a8.626,8.626,0,0,1,.656-1.2,4.034,4.034,0,0,1,2.128-1.632,5.169,5.169,0,0,1,1.664-.24,5.971,5.971,0,0,1,3.008.784,4.73,4.73,0,0,1,2.048,2.576H17.7A4.943,4.943,0,0,1,22.72,10.1a4.946,4.946,0,0,1,3.952,1.648A6.9,6.9,0,0,1,28.1,16.408V27h-2.56V16.856a5.391,5.391,0,0,0-.864-3.328,3.257,3.257,0,0,0-2.752-1.12,5.394,5.394,0,0,0-1.456.192,3.965,3.965,0,0,0-1.232.576,2.818,2.818,0,0,0-.864.976,2.885,2.885,0,0,0-.32,1.392V27h-2.56V16.856a5.391,5.391,0,0,0-.864-3.328,3.181,3.181,0,0,0-2.688-1.12,5.57,5.57,0,0,0-1.472.192,3.942,3.942,0,0,0-1.248.576,2.976,2.976,0,0,0-.88.976A2.773,2.773,0,0,0,8,15.544V27Zm34.5.384a7.723,7.723,0,0,1-3.856-.88,8.772,8.772,0,0,1-2.672-2.352l1.824-1.472a7.179,7.179,0,0,0,2.144,1.872,5.586,5.586,0,0,0,2.752.656,4.076,4.076,0,0,0,2.544-.7,2.557,2.557,0,0,0,.288-3.632,3.808,3.808,0,0,0-2.256-.944l-1.312-.192a10.948,10.948,0,0,1-2.112-.5,5.87,5.87,0,0,1-1.68-.9,3.854,3.854,0,0,1-1.12-1.392,4.54,4.54,0,0,1-.4-1.984,4.772,4.772,0,0,1,.448-2.128,4.287,4.287,0,0,1,1.232-1.52,5.379,5.379,0,0,1,1.872-.912,8.649,8.649,0,0,1,2.336-.3,7.291,7.291,0,0,1,3.376.7,7.568,7.568,0,0,1,2.384,1.952l-1.7,1.536a5.089,5.089,0,0,0-1.6-1.392,5.152,5.152,0,0,0-2.656-.624,3.667,3.667,0,0,0-2.416.688,2.32,2.32,0,0,0-.816,1.872,1.96,1.96,0,0,0,.816,1.76,6.1,6.1,0,0,0,2.352.8l1.28.192a6.866,6.866,0,0,1,3.9,1.584,4.164,4.164,0,0,1,1.152,3.056,4.676,4.676,0,0,1-1.632,3.776A6.735,6.735,0,0,1,39.936,27.384Z" transform="translate(46.912 31.95)" fill="#101820"/></svg>