<svg xmlns="http://www.w3.org/2000/svg" width="17.807" height="18.166" viewBox="0 0 17.807 18.166"><g transform="translate(0.05 0.018)"><path d="M280.824,224.946a10.68,10.68,0,0,0-.157-1.846H272.1v3.5h4.906a4.2,4.2,0,0,1-1.816,2.76v2.269h2.927A8.871,8.871,0,0,0,280.824,224.946Z" transform="translate(-263.067 -215.672)" fill="#4285f4"/><path d="M37.017,331.642a8.7,8.7,0,0,0,6.021-2.193L40.11,327.18a5.509,5.509,0,0,1-8.19-2.88H28.9v2.339A9.084,9.084,0,0,0,37.017,331.642Z" transform="translate(-27.984 -313.495)" fill="#34a853"/><path d="M3.933,155.817a5.44,5.44,0,0,1,0-3.478V150H.916a9.09,9.09,0,0,0,0,8.157Z" transform="translate(0 -145.012)" fill="#fbbc04"/><path d="M37.017,3.577A4.936,4.936,0,0,1,40.5,4.938h0l2.593-2.593A8.729,8.729,0,0,0,37.017-.018,9.081,9.081,0,0,0,28.9,4.988l3.017,2.34A5.433,5.433,0,0,1,37.017,3.577Z" transform="translate(-27.984 0)" fill="#ea4335"/></g></svg>